<svg xmlns="http://www.w3.org/2000/svg" xmlns:xlink="http://www.w3.org/1999/xlink" width="125" height="150" viewBox="0 0 125 150">
  <defs>
    <clipPath id="clip-path">
      <rect width="80.478" height="82.434" fill="none"/>
    </clipPath>
    <clipPath id="clip-Logo_Transparent">
      <rect width="125" height="150"/>
    </clipPath>
  </defs>
  <g id="Logo_Transparent" data-name="Logo Transparent" clip-path="url(#clip-Logo_Transparent)">
    <g id="Logo" transform="translate(-66.216 -101.83)">
      <g id="Vector" transform="translate(66.216 101.83)">
        <g id="Note" transform="translate(0 9.453)">
          <g id="Top" transform="translate(0 0)">
            <path id="Rectangle_14" data-name="Rectangle 14" d="M20,0H88.478a20,20,0,0,1,20,20v2a0,0,0,0,1,0,0H0a0,0,0,0,1,0,0V20A20,20,0,0,1,20,0Z" fill="#fedbd0"/>
          </g>
          <g id="Main" transform="translate(0 25.113)">
            <path id="BG" d="M0,0H108.478a0,0,0,0,1,0,0V105.434a10,10,0,0,1-10,10H10a10,10,0,0,1-10-10V0A0,0,0,0,1,0,0Z" transform="translate(0 0)" fill="#fff"/>
            <g id="Repeat_Grid_1" data-name="Repeat Grid 1" transform="translate(14 17)" clip-path="url(#clip-path)">
              <g transform="translate(-79 -121)">
                <line id="Line_2" data-name="Line 2" x2="81" transform="translate(79 122)" fill="none" stroke="#7d4f52" stroke-width="2"/>
              </g>
              <g transform="translate(-79 -109)">
                <line id="Line_2-2" data-name="Line 2" x2="81" transform="translate(79 122)" fill="none" stroke="#7d4f52" stroke-width="2"/>
              </g>
              <g transform="translate(-79 -97)">
                <line id="Line_2-3" data-name="Line 2" x2="81" transform="translate(79 122)" fill="none" stroke="#7d4f52" stroke-width="2"/>
              </g>
              <g transform="translate(-79 -85)">
                <line id="Line_2-4" data-name="Line 2" x2="81" transform="translate(79 122)" fill="none" stroke="#7d4f52" stroke-width="2"/>
              </g>
              <g transform="translate(-79 -73)">
                <line id="Line_2-5" data-name="Line 2" x2="81" transform="translate(79 122)" fill="none" stroke="#7d4f52" stroke-width="2"/>
              </g>
              <g transform="translate(-79 -61)">
                <line id="Line_2-6" data-name="Line 2" x2="81" transform="translate(79 122)" fill="none" stroke="#7d4f52" stroke-width="2"/>
              </g>
              <g transform="translate(-79 -49)">
                <line id="Line_2-7" data-name="Line 2" x2="81" transform="translate(79 122)" fill="none" stroke="#7d4f52" stroke-width="2"/>
              </g>
            </g>
          </g>
          <g id="Border" transform="translate(0 0)">
            <line id="Line_1" data-name="Line 1" x2="108.286" transform="translate(0.301 21.813)" fill="none" stroke="#442c2e" stroke-width="6"/>
            <g id="Rectangle_13" data-name="Rectangle 13" fill="none" stroke="#442c2e" stroke-width="6">
              <path d="M20,0H88.478a20,20,0,0,1,20,20V130.547a10,10,0,0,1-10,10H10a10,10,0,0,1-10-10V20A20,20,0,0,1,20,0Z" stroke="none"/>
              <path d="M20,3H88.478a17,17,0,0,1,17,17V130.547a7,7,0,0,1-7,7H10a7,7,0,0,1-7-7V20A17,17,0,0,1,20,3Z" fill="none"/>
            </g>
          </g>
        </g>
        <g id="Pencil" transform="translate(79.833)">
          <rect id="Rectangle_15" data-name="Rectangle 15" width="13.285" height="47.557" rx="6.642" transform="translate(33.628 1.657) rotate(45)" fill="#fedbd0"/>
          <path id="Path_3" data-name="Path 3" d="M46.041,13.539a2.2,2.2,0,0,0-.639-1.563L36.066,2.639a2.233,2.233,0,0,0-3.127,0L26.707,8.87h0L2.639,32.939A2.2,2.2,0,0,0,2,34.5v9.337a2.2,2.2,0,0,0,2.2,2.2h9.337a2.2,2.2,0,0,0,1.674-.639L39.149,21.334h0L45.4,15.212a2.62,2.62,0,0,0,.484-.727,2.2,2.2,0,0,0,0-.528,1.541,1.541,0,0,0,0-.308Zm-33.405,28.1H6.4V35.405L28.271,13.539,34.5,19.771ZM37.607,16.666l-6.232-6.232,3.127-3.1,6.21,6.21Z" transform="translate(-0.874 -2)" fill="#442c2e"/>
        </g>
      </g>
    </g>
  </g>
</svg>
